<svg width="28" height="26" viewBox="0 0 28 26" xmlns="http://www.w3.org/2000/svg">
    <path d="M11.4178 10.6961C10.3776 10.6961 9.36074 10.4096 8.49594 9.87278C7.63113 9.336 6.95723 8.57307 6.55952 7.68054C6.1618 6.78801 6.05813 5.80599 6.26163 4.85873C6.46514 3.91148 6.96667 3.04156 7.70276 2.35906C8.43885 1.67656 9.37642 1.21214 10.3968 1.02457C11.4173 0.837009 12.4747 0.934724 13.4353 1.30536C14.3959 1.67599 15.2165 2.30288 15.7933 3.10671C16.3701 3.91053 16.6771 4.85517 16.6756 5.82109C16.6715 7.11409 16.116 8.35295 15.1306 9.26657C14.1453 10.1802 12.8103 10.6942 11.4178 10.6961V10.6961ZM11.4178 2.38331C10.6856 2.38331 9.96979 2.58493 9.36096 2.96268C8.75214 3.34043 8.27761 3.87733 7.9974 4.50551C7.71719 5.13368 7.64387 5.8249 7.78672 6.49176C7.92957 7.15863 8.28218 7.77118 8.79994 8.25196C9.31771 8.73275 9.97738 9.06016 10.6955 9.19281C11.4137 9.32546 12.1581 9.25738 12.8346 8.99718C13.5111 8.73698 14.0893 8.29635 14.4961 7.73101C14.9029 7.16568 15.12 6.50102 15.12 5.82109C15.12 4.90933 14.73 4.03492 14.0357 3.39021C13.3414 2.7455 12.3997 2.38331 11.4178 2.38331V2.38331Z" fill-opacity="0.5"/>
    <path d="M12.7711 22.8804C12.6011 22.7225 12.47 22.5323 12.3867 22.3228C12.3035 22.1134 12.2701 21.8897 12.2889 21.6671H3.1111V17.4926C4.21391 16.3999 5.55154 15.5345 7.03739 14.9522C8.52324 14.37 10.1242 14.0839 11.7367 14.1126H12.2967C12.261 13.8705 12.2859 13.624 12.3695 13.3922C12.4532 13.1605 12.5932 12.9498 12.7789 12.7765L12.8722 12.6971C12.5067 12.6971 12.0944 12.6537 11.7367 12.6537C9.83919 12.6119 7.95542 12.9621 6.22157 13.6791C4.48771 14.396 2.94709 15.4618 1.7111 16.7993C1.61012 16.9243 1.55554 17.0764 1.55554 17.2326V21.6671C1.55554 22.0502 1.71943 22.4176 2.01115 22.6885C2.30288 22.9593 2.69854 23.1115 3.1111 23.1115H12.9889L12.7711 22.8804Z" fill-opacity="0.5"/>
    <path d="M20.8989 11.7649C20.9374 11.7581 20.9771 11.7581 21.0156 11.7649C20.977 11.7589 20.9375 11.7589 20.8989 11.7649V11.7649Z" fill-opacity="0.5"/>
    <path d="M26.1955 16.8424L24.64 16.4018C24.5288 16.0485 24.3776 15.7072 24.1889 15.3835L24.9666 14.0402C24.992 13.9864 24.9981 13.9266 24.9841 13.8694C24.9701 13.8122 24.9367 13.7607 24.8889 13.7224L23.7611 12.6752C23.7184 12.6323 23.6615 12.604 23.5994 12.5948C23.5373 12.5857 23.4737 12.5961 23.4189 12.6246L21.9878 13.3468C21.6354 13.1629 21.2624 13.0152 20.8755 12.9063L20.4011 11.4618C20.381 11.4087 20.3428 11.363 20.2923 11.3318C20.2418 11.3005 20.1817 11.2853 20.1211 11.2885H18.5267C18.4654 11.2878 18.4056 11.3059 18.3564 11.3398C18.3073 11.3737 18.2714 11.4216 18.2544 11.4763L17.78 12.9207C17.3904 13.026 17.0148 13.1713 16.66 13.3541L15.2444 12.6318C15.1907 12.6039 15.1284 12.5937 15.0677 12.6029C15.007 12.6121 14.9514 12.6401 14.91 12.6824L13.7589 13.7224C13.7162 13.7641 13.6887 13.8173 13.6803 13.8743C13.672 13.9313 13.6831 13.9893 13.7122 14.0402L14.49 15.3546C14.2843 15.6802 14.1198 16.0267 14 16.3874L12.4444 16.8207C12.3856 16.8365 12.3339 16.8698 12.2974 16.9155C12.2609 16.9611 12.2415 17.0166 12.2422 17.0735V18.5541C12.2468 18.6062 12.2687 18.6558 12.3049 18.6959C12.3412 18.736 12.3899 18.7647 12.4444 18.7779L14 19.2185C14.1149 19.5728 14.2714 19.9143 14.4667 20.2368L13.6889 21.6163C13.6592 21.6657 13.6477 21.7228 13.6561 21.7788C13.6645 21.8349 13.6924 21.8868 13.7355 21.9268L14.8633 22.9741C14.9074 23.0149 14.9642 23.0417 15.0256 23.0508C15.0871 23.0599 15.15 23.0507 15.2055 23.0246L16.66 22.3024C17.0061 22.4753 17.3711 22.6133 17.7489 22.7141L18.2155 24.1585C18.2347 24.212 18.2711 24.2587 18.3198 24.2923C18.3685 24.3258 18.4271 24.3447 18.4878 24.3463H20.0822C20.1431 24.3458 20.2023 24.3273 20.2513 24.2936C20.3002 24.2598 20.3363 24.2125 20.3544 24.1585L20.8289 22.678C21.2016 22.5771 21.5615 22.439 21.9022 22.2663L23.3722 22.9885C23.4262 23.0152 23.4882 23.0247 23.5486 23.0155C23.609 23.0064 23.6645 22.9792 23.7066 22.9379L24.8889 21.9557C24.9207 21.9133 24.9377 21.8629 24.9377 21.8113C24.9377 21.7596 24.9207 21.7092 24.8889 21.6668L24.1111 20.3091C24.2999 19.9905 24.4512 19.6539 24.5622 19.3052L26.1178 18.8646C26.1766 18.8488 26.2282 18.8155 26.2648 18.7699C26.3013 18.7242 26.3207 18.6687 26.32 18.6118V17.0952C26.3271 17.0464 26.3192 16.9968 26.2972 16.952C26.2752 16.9073 26.2399 16.8693 26.1955 16.8424V16.8424ZM19.3278 20.2224C18.8133 20.2238 18.31 20.0834 17.8816 19.8189C17.4532 19.5544 17.119 19.1777 16.9215 18.7366C16.7239 18.2956 16.6718 17.8099 16.7718 17.3413C16.8717 16.8728 17.1193 16.4423 17.4831 16.1045C17.8469 15.7667 18.3105 15.5368 18.8151 15.444C19.3197 15.3511 19.8427 15.3995 20.3177 15.583C20.7927 15.7664 21.1983 16.0767 21.4832 16.4745C21.7681 16.8723 21.9193 17.3397 21.9178 17.8174C21.9157 18.4547 21.6422 19.0653 21.1569 19.5159C20.6716 19.9665 20.014 20.2205 19.3278 20.2224V20.2224Z" fill-opacity="0.5"/>
</svg>
