<svg width="27" height="25" viewBox="0 0 27 25" fill="none" xmlns="http://www.w3.org/2000/svg">
<path d="M25.904 3.87861L20.5009 0.0272184H20.4353L20.3915 0H16.7821C16.6661 0 16.5548 0.0573528 16.4728 0.159441C16.3907 0.26153 16.3446 0.399991 16.3446 0.544366C16.3446 1.55499 16.022 2.52422 15.4476 3.23884C14.8733 3.95346 14.0944 4.35493 13.2821 4.35493C12.4699 4.35493 11.6909 3.95346 11.1166 3.23884C10.5423 2.52422 10.2196 1.55499 10.2196 0.544366C10.2196 0.399991 10.1735 0.26153 10.0915 0.159441C10.0094 0.0573528 9.89816 0 9.78213 0H6.17275L6.129 0.0272184H6.06338L0.660254 3.87861C0.370142 4.08763 0.154594 4.42586 0.0571467 4.82498C-0.0403009 5.22409 -0.0123855 5.65435 0.135254 6.02885L2.14775 11.037C2.25699 11.3068 2.42421 11.5335 2.63081 11.6921C2.83742 11.8506 3.07532 11.9348 3.31807 11.9352H5.84463V23.3669C5.84463 23.8 5.98291 24.2154 6.22905 24.5217C6.47519 24.8279 6.80903 25 7.15713 25H19.4071C19.7552 25 20.0891 24.8279 20.3352 24.5217C20.5814 24.2154 20.7196 23.8 20.7196 23.3669V11.9352H23.2462C23.4889 11.9348 23.7268 11.8506 23.9334 11.6921C24.1401 11.5335 24.3073 11.3068 24.4165 11.037L26.429 6.02885C26.5766 5.65435 26.6046 5.22409 26.5071 4.82498C26.4097 4.42586 26.1941 4.08763 25.904 3.87861ZM3.31807 10.8465C3.23756 10.8497 3.15812 10.8229 3.08992 10.7695C3.02172 10.7162 2.96787 10.6387 2.93525 10.5471L0.922754 5.53892C0.87154 5.41382 0.861154 5.26893 0.893764 5.13452C0.926375 5.00012 0.99946 4.88658 1.09775 4.81764L5.84463 1.44257V10.8465H3.31807ZM19.8446 23.3669C19.8446 23.5113 19.7985 23.6497 19.7165 23.7518C19.6344 23.8539 19.5232 23.9113 19.4071 23.9113H7.15713C7.0411 23.9113 6.92982 23.8539 6.84777 23.7518C6.76572 23.6497 6.71963 23.5113 6.71963 23.3669V1.0479H9.3665C9.46888 2.25127 9.92554 3.36491 10.6485 4.17429C11.3715 4.98366 12.3096 5.43148 13.2821 5.43148C14.2547 5.43148 15.1928 4.98366 15.9158 4.17429C16.6387 3.36491 17.0954 2.25127 17.1978 1.0479H19.8446V23.3669ZM25.6415 5.53892L23.629 10.5471C23.5964 10.6387 23.5425 10.7162 23.4743 10.7695C23.4061 10.8229 23.3267 10.8497 23.2462 10.8465H20.7196V1.44257L25.4665 4.81764C25.5648 4.88658 25.6379 5.00012 25.6705 5.13452C25.7031 5.26893 25.6927 5.41382 25.6415 5.53892Z"/>
</svg>
