<?xml version="1.0" encoding="UTF-8"?>
<svg xmlns="http://www.w3.org/2000/svg" width="1130.51465" height="307.01177" xmlns:xlink="http://www.w3.org/1999/xlink" viewBox="0 0 1130.51465 307.01177">
  <defs>
    <style>
      .cls-1 {
        letter-spacing: 0em;
      }

      .cls-2 {
        fill: #fff;
      }

      .cls-3 {
        font-size: 153.26761px;
      }

      .cls-3, .cls-4 {
        font-family: ForteMT, Forte;
      }

      .cls-5 {
        fill: url(#linear-gradient);
      }

      .cls-6 {
        fill: url(#linear-gradient-2);
      }

      .cls-7 {
        letter-spacing: -.08984em;
      }

      .cls-8 {
        fill: none;
      }

      .cls-9 {
        fill: #1a1a1a;
      }

      .cls-4 {
        font-size: 152.13428px;
      }
    </style>
    <linearGradient id="linear-gradient" x1="2350.27556" y1="-2221.69252" x2="2575.51789" y2="-2221.69252" gradientTransform="translate(-1588.70873 -2362.81495) rotate(90.32888)" gradientUnits="userSpaceOnUse">
      <stop offset="0" stop-color="#e85b20"/>
      <stop offset=".15445" stop-color="#ea6d1f"/>
      <stop offset=".46422" stop-color="#f09c1e"/>
      <stop offset=".47207" stop-color="#f19e1e"/>
      <stop offset="1" stop-color="#edbc32"/>
    </linearGradient>
    <linearGradient id="linear-gradient-2" x1="2490.02857" y1="-2227.12" x2="2640.33571" y2="-2227.12" gradientTransform="translate(-1588.70873 -2362.81495) rotate(90.32888)" gradientUnits="userSpaceOnUse">
      <stop offset="0" stop-color="#edbc32"/>
      <stop offset=".78646" stop-color="#ed7c24"/>
      <stop offset="1" stop-color="#ed6a21"/>
    </linearGradient>
  </defs>
  <g id="Layer_1" data-name="Layer 1"/>
  <g id="Layer_2" data-name="Layer 2">
    <g id="Layer_1-2" data-name="Layer 1">
      <g>
        <path class="cls-5" d="M615.82215,141.59072c.48578-.06366,.97778-.12366,1.47583-.17963,.00012,0,1.22131-.13727,2.43713-.2366,1.40448-.11475,8.98016-.00812,19.33691,.82938-1.56927-4.78915-3.74432-12.42111-5-22-3.45026-26.32031,2.3446-49.7662,4-56,3.69513-13.91479,6.74384-17.30368,6-27-1.133-14.76974-9.60864-25.18198-10-25-.39423,.18332,7.57385,11.04218,6,25-.74146,6.57587-3.23486,10.59369-6,16-.00006,.00009-4.16217,8.13766-13,36-3.5426,11.16849-7.07233,28.35672-5.24988,52.58685Zm-6.75012-98.58685c5.47589,28.48514-4.14972,51.71063-4.87213,53.35223-.03644,.08286-.63202,1.46347-1.47681,3.36002-1.69525,3.80582-6.8634,15.00995-11.9295,30.89819-2.62891,8.24487-4.38757,15.10815-5.45532,19.58051,4.95538-2.94324,11.53961-6.07126,19.66901-8.05441,2.65527-.64777,5.18835-1.10336,7.56305-1.41736-.05249-3.17889-.07751-8.10834,.13739-14.11575,.53583-14.97842,2.40942-25.39099,3.15619-30.60461,.53705-3.74951,3.54022-25.90857-.79187-46.99881C608.89503,18.93187,589.58222-.31334,589.07203,.00386c-.46265,.28766,14.89386,16.43835,20,43Zm-32-31c-.29608,.09317,6.38672,14.358,9,33,2.24133,15.98868,3.70819,51.02673-24.06299,96.78482-.00006,.00009-16.42761,35.29016-16.79068,65.78531l1,1.42868v.00119c-.17392,8.29987,.46902,16.00623,.67984,16,.20898-.00616,.15839-7.59186,.94745-19,.32654-4.7204,.73901-9.25897,2.61499-14.78345,.19513-.57452,.8205-2.38022,2.12231-5.21655,1.45776-3.17621,4.53296-9.76212,10.422-17,5.33875-6.56155,10.86963-11.05283,15.15924-14,1.39594-6.76706,3.3678-16.4039,5.68469-28,5.43011-27.17786,8.11444-40.77292,8.5271-45,3.71539-38.06085-14.85327-70.14182-15.30396-70Zm91,29c-5.21301-16.35883-13.52777-28.19403-19-35,15.57489,32.97986,15.60486,57.70837,12,75-4.64172,22.26544-21.01508,59.56622-15,63,.99304,.56689,6.35718,2.29041,9.7583,3.48563,4.35724,1.53122,5.17633,1.60062,5.89185,2.05176,10.36951,6.53796,15.59814,11.81659,18.03522,14.59534,7.08105,8.07382,10.07031,12.44159,10.07037,12.44162,.86731,1.26724,1.4256,2.1481,1.58942,2.07312,1.11621-.51089-12.70221-25.43671-18.534-52.49594-8.25476-38.3017,5.67218-52.25415-4.81116-85.15152Z"/>
        <g>
          <path class="cls-2" d="M675.21016,269.2293c30.86864-27.51337,32.81638-74.00738,4.35284-103.84405-28.46426-29.83742-76.56308-31.72089-107.43172-4.20752-30.86864,27.51337-32.8168,74.00397-4.35254,103.8414,28.46354,29.83667,76.56278,31.72355,107.43142,4.21018Z"/>
          <path class="cls-6" d="M676.31172,270.35951c31.54034-28.13953,33.52985-75.68463,4.4483-106.19739-29.08502-30.51355-78.22742-32.43948-109.7702-4.30255-31.54028,28.13876-33.53119,75.68024-4.44806,106.19543,29.0835,30.51111,78.22723,32.44073,109.76996,4.3045Zm-1.23087-1.29215c-33.42227,29.81563-82.73921,19.82768-107.20289-4.20438-19.06477-18.72838-20.19435-43.19606-20.32115-47.78828-.07485-2.71096-.4323-34.64233,24.66498-55.92336,27.04103-22.92919,76.79675-27.69955,107.20318,4.20176,28.40285,29.79923,26.45901,76.23515-4.34412,103.71426Z"/>
          <path class="cls-9" d="M612.93124,265.9132s25.22079-11.20768,28.67213-13.94693c-1.08277-7.49018-3.73851-23.719-5.74504-30.83348-6.5156-.84119-30.83246-3.96461-34.09747-4.20897-2.58987,3.88613-12.45704,23.61213-13.95149,27.42437,3.19136,3.46651,22.64584,19.82636,25.12186,21.56501Zm65.44577,.27825c.2272-.2183,.45459-.43191,.67799-.64269,8.08675-8.29499,13.81897-18.0061,17.15795-28.31045l-7.17353-3.99533s-9.1388,16.37314-18.65744,23.95707l-3.88071,17.32023s6.13516-3.10116,11.87573-8.32881Zm-21.1567-69.84649s19.9616,2.83351,26.36971,6.25178c1.29051-3.29183,4.05578-18.60498,1.83373-22.03564-3.50148-4.76921-10.77914-13.49748-23.08533-20.89926-4.44971,1.93656-11.31739,5.12813-17.26504,8.06188,2.89035,6.32876,11.04921,24.41428,12.14693,28.62124Zm-67.99362-8.93665s11.95703-16.06821,21.52137-24.25467c-1.76263-2.82453-5.99371-8.97153-11.12325-12.51553-3.86673,1.07971-15.86018,5.00851-26.81072,12.96449-4.10842,8.28227-7.93257,18.45313-7.4014,23.16534,4.54694-.13182,11.70587,.04787,23.81401,.64037Zm-36.48022,26.53991c-.98705,.16717-3.62275,1.08021-5.10274,1.60892,.04404,5.13918,.6418,12.00718,2.89266,19.78417,1.95462,6.75341,4.59295,12.24748,6.95903,16.36544,.52176,.7514,1.04348,1.50279,1.56524,2.25419,.80309,.81114,1.60963,1.63776,2.41964,2.47939,.91381,.94949,1.91517,2.00518,2.94471,3.11653-1.41809-5.27428-1.89363-11.2745-.86401-17.03921-9.49461-13.74084-10.81452-28.56942-10.81452-28.56942Zm58.93026,69.35133c-4.90283-.03935-13.66772,.6293-24.45922-3.77257-.24139-.09842-.48384-.19871-.72834-.30299-.01424,.02603-.02642,.05338-.03715,.08043,15.11623,8.20447,32.58707,11.05955,49.37329,8.44801l.76047-.50645s-14.6496,1.18464-24.90904-3.94643Z"/>
          <path class="cls-9" d="M645.39393,167.09108l.23824,.11295,.10806,.23446h0c2.89871,6.3628,11.03466,24.36218,12.18593,28.73453l.08842,.34245-.22912,.27315h0c-4.92742,5.85812-21.36843,24.79492-21.36964,24.79776l-.25775,.29551-.39562-.05151,.0959-.6976-.0959,.6976h0c-6.50216-.83976-30.86147-3.96648-34.05794-4.20475l-.32457-.02498-.19624-.24811h0c-1.89674-2.41157-4.97015-9.72961-7.68889-16.5918h0c-2.70036-6.83919-4.95479-13.11883-4.95687-13.12246l-.12445-.34459,.22093-.29772h0c.01714-.01696,11.25021-15.12633,20.74281-23.59359h0c.29626-.26406,.59256-.52373,.88797-.77643l.19769-.16862,.26283-.00738h0c.05531,.01824,23.27399-.71896,34.66821,4.64113h0Zm-21.68308-2.91664c-6.27313-.4239-11.47899-.34605-12.6799-.32246h0c-.22069,.19018-.44254,.38623-.66619,.58556h0c-4.65004,4.1446-9.80068,9.99917-13.77271,14.8073h0c-3.32206,4.02187-5.81874,7.30386-6.55363,8.27834h0c.50838,1.40122,2.49768,6.85909,4.81595,12.73463h0c2.57127,6.54218,5.62826,13.68427,7.29721,15.99281h0c4.28351,.39122,26.55316,3.24954,33.40716,4.13358h0c2.06981-2.38641,16.06945-18.52405,20.86132-24.20345h0c-1.34706-4.56533-9.01105-21.60164-11.90356-27.9364h0c-5.36081-2.46615-13.7569-3.59805-20.80564-4.06991h0Z"/>
          <path class="cls-9" d="M567.77874,264.55785c6.89412,7.22674,14.94114,12.80862,23.61594,16.7358,8.8951,2.7032,16.10406,2.21377,20.27557,2.24895l.68463,.00471,1.32933-18.43572-.32542-.22923c-2.33627-1.63086-21.35405-17.62109-24.86336-21.31005-.04932-.05165-.09588-.10344-.14062-.15263l-.2645-.28732-.39084,.05872c-2.46224,.37487-8.56474-.06569-13.92876-.62495-5.384-.55344-10.09769-1.20528-10.10707-1.20622l-.70044-.09788-.12113,.67488c-.88099,4.93813-.67931,10.0246,.26085,14.7027-.11927-.12577-.23819-.25044-.35517-.37306-1.20808-1.26636-2.30155-2.38433-3.16041-3.2538-.69732-.58908-1.39461-1.17819-2.09194-1.76728,1.19947,1.90363,2.75405,4.20825,4.69931,6.73786,2.75529,3.58298,5.10286,6.07015,5.58401,6.5745Zm1.58835-.2264c-1.5509-1.62572-2.69839-2.97389-3.45611-3.91463-.35286-.43718-.61903-.78159-.80288-1.02705l.01967-.01029c-1.33802-4.97956-1.82104-10.6286-.96288-16.06977,1.51629,.20186,5.28401,.68953,9.45059,1.11807,5.19459,.53,10.92861,.98571,13.91202,.66424,3.80327,3.91168,21.16337,18.52587,24.64827,21.15079l-1.1786,16.35074c-5.03213,.0121-13.29672,.42646-23.43996-3.69181-8.47691-5.22336-14.48502-10.68452-18.19012-14.57026Z"/>
          <path class="cls-9" d="M635.41131,287.17199l.89991-.5978,.16733-.02575c7.11221-1.01269,14.538-4.15974,20.1599-7.06331,5.62551-2.90121,9.42843-5.53469,9.43872-5.53838l.03939-.02822,.04611-.02195,.00959-.00492s1.79101-.91946,3.55886-2.06779c1.16378-.75594,4.44914-3.20068,8.35025-7.06231l.52776,1.03507c-.90323,.92552-2.17318,2.17851-3.75869,3.59166-7.57791,6.75406-14.82192,10.44378-17.81455,11.86754-8.28659,3.94241-15.88566,5.69201-21.37515,6.51854l-.24943-.60238Z"/>
          <path class="cls-9" d="M653.41435,254.05278c-6.26441-1.35745-11.60902-2.76352-11.61978-2.76664l-.36408-.09464-.28912,.2299c-1.54034,1.24165-8.78243,4.79128-15.48625,7.91261-6.7288,3.14051-13.01596,5.93328-13.02913,5.93919l-.39309,.17452-1.28212,17.80274-.03578,.46136,.42684,.21358c7.62381,3.7949,17.4161,4.1995,22.29862,4.13396,5.27143-.66966,10.48728-1.87446,15.5569-3.61805,9.8484-3.89427,17.69136-9.3354,17.72622-9.34864l.22911-.15829,4.14357-18.49369-.9595,.05657c-3.45354,.20784-10.67424-1.08593-16.9224-2.44446Zm-.31785,1.37222c5.82718,1.25738,12.37853,2.48107,16.37644,2.49893l-3.62454,16.17736c-.90021,.60082-4.38392,2.89354-9.20996,5.38385-5.62302,2.90315-13.04768,6.05063-20.11438,7.05904-.00069-.00072-.88837,.0713-2.40354,.1022-1.51636,.03048-3.64577,.01927-6.09008-.1524-4.75233-.32884-10.68856-1.2679-15.59389-3.61081l1.18934-16.50498c1.47547-.65762,6.91-3.09254,12.66318-5.77749,6.44845-3.01881,13.19164-6.26915,15.47008-7.86561,1.28536,.33335,5.9768,1.52948,11.33735,2.68992Z"/>
          <path class="cls-9" d="M683.94021,201.97987l.23696,.12575,.09408,.24137h0c7.55418,19.36078,5.50447,30.9136,5.48542,31.01664l-.02135,.1126-.0559,.10051h0c-.02233,.03156-8.22336,14.7627-17.32644,22.89071h0c-.50079,.44636-1.00388,.8728-1.50907,1.27443l-.18325,.14691-.23757,.01224h0c-3.84232,.21025-11.00985-1.11245-17.32665-2.47388h0c-6.30044-1.36613-11.67792-2.77955-11.68526-2.78094l-.46397-.12284-.06488-.45946h0c-1.07732-7.46591-3.74103-23.71569-5.72692-30.74643l-.09974-.35433,.24398-.28324h0c.02167-.02486,16.44833-18.94367,21.35577-24.77957l.26168-.31004,.40804,.05827h0c.05237,.02254,19.9165,2.79179,26.61507,6.33129h0Zm-16.08388-3.10106c-4.79653-.94095-9.03546-1.58615-10.33453-1.77811h0c-4.84191,5.73811-18.84395,21.87993-20.86232,24.20469h0c1.97395,7.21554,4.4904,22.53302,5.59789,30.10196h0c1.42945,.36876,5.97909,1.52365,11.15659,2.64577h0c6.10923,1.32883,13.14829,2.59391,16.68874,2.45532h0c.41987-.34201,.84208-.7012,1.26276-1.07616h0c4.40366-3.92296,8.68076-9.56691,11.8363-14.21871h0c2.85084-4.20095,4.78554-7.57956,5.13802-8.20217h0c.0357-.23953,.11858-.86558,.17546-1.88803h0c.21994-4.00174-.01373-13.83365-5.51193-28.03284h0c-3.1178-1.58206-9.53255-3.11712-15.14699-4.21172h0Zm-26.06286,52.40768l-.1912,.67976,.1912-.67976h0Z"/>
          <path class="cls-9" d="M589.26283,186.70424l.48812,.02361,.16323,.44951h0c.00393,.01264,2.25063,6.2659,4.94052,13.0808h0c2.66991,6.79129,5.8622,14.23095,7.48299,16.23619l.31155,.39312-.27692,.41747h0c-2.51436,3.75783-12.43894,23.5906-13.88224,27.29141l-.15226,.38455-.41751,.06228h0c-2.85086,.41245-8.87285-.06184-14.30449-.61431h0c-5.41198-.55869-10.15322-1.21337-10.15779-1.21443l-.32265-.04565-.18146-.26086h0c-9.60626-13.9132-10.92453-28.83745-10.93356-28.89967l-.00909-.09951,.02151-.09941h0c.01488-.05131,3.1989-15.3589,12.80179-27.46973l.21125-.26403,.34454-.01163h0c4.58791-.13204,11.75533,.04795,23.87247,.64028h0Zm-.0362,.70476l-.03732,.70204,.03732-.70204h0Zm-.52688,.67768c-11.50297-.55809-18.45979-.73519-22.91857-.62467h0c-4.55803,5.82266-7.63632,12.43412-9.57165,17.61408h0c-.98367,2.62763-1.67231,4.88769-2.11456,6.48563h0c-.35836,1.29565-.55188,2.14884-.61351,2.42658h0c.02762,.27393,.12083,1.10055,.33772,2.37801h0c.79654,4.71457,3.26808,15.39754,10.16736,25.4982h0c1.15171,.15603,5.22824,.69501,9.78416,1.1629h0c5.08626,.53088,10.8375,.95446,13.51775,.67659h0c1.90432-4.54118,10.69899-22.11923,13.5974-26.75433h0c-1.90901-2.74791-4.80996-9.67359-7.39085-16.1891h0c-2.2735-5.75981-4.23215-11.12159-4.79526-12.67389h0Z"/>
          <path class="cls-9" d="M547.65511,216.30247l.24047-.0851c1.45263-.52284,4.14173-1.44164,4.97568-1.5759l.4893-.08372,.09938-.46975c.00085-.00244,.19347-.92685,.63573-2.52515,.44286-1.59953,1.13123-3.85872,2.11426-6.48711,1.96297-5.25879,5.10696-11.99352,9.77924-17.88005l.17843-.22481-.03145-.27909c-.52915-4.30715,3.19205-14.45651,7.25616-22.6284,10.79846-7.80906,22.64426-11.69266,26.4347-12.7472l.2004-.0576,.14086-.15159c.13107-.14771,1.26027-1.17166,2.6073-2.37059,1.87203-1.66855,4.25839-3.77187,5.54254-4.90029l.89007-.78511c-13.41292,2.49887-26.29595,8.51759-37.0769,18.1267-16.54945,14.75061-24.78179,34.95547-24.47618,55.12474Zm24.96917-54.60644c9.58641-8.54441,20.84362-14.22253,32.65633-17.08812-1.12417,.99131-2.39482,2.11599-3.49202,3.09392-1.18796,1.06017-2.13619,1.90947-2.55196,2.31227-4.10997,1.16791-15.96457,5.11285-26.86001,13.02625l-.14349,.10424-.07549,.15503c-4.04604,8.21123-7.85564,18.08362-7.49379,23.25766-8.52465,10.87139-11.92356,24.21116-12.53049,26.80252-.99432,.24533-2.51341,.75575-3.76055,1.19069,.18551-19.39533,8.33701-38.66983,24.25148-52.85447Z"/>
          <path class="cls-9" d="M651.08111,146.6444l-.35375,.57819c2.21344,1.79684,3.99568,3.46768,5.42552,4.96649,3.40423,3.56846,4.8088,6.16305,5.28504,7.19637,.15895,.3443,.20701,.49136,.20696,.49351l.08178,.24483,.22664,.13495c7.21781,4.34216,12.69015,9.14358,16.67401,13.31963,2.74769,2.88025,4.78598,5.46183,6.20213,7.38974l.19509,.26548,6.36672,.53312c-3.08048-5.82031-7.01852-11.33971-11.82823-16.38145-8.16725-8.56125-17.95273-14.81541-28.48189-18.74085Zm3.83285,2.31646c8.86695,3.90222,17.0912,9.54207,24.11276,16.90237,4.24543,4.45023,7.80735,9.27346,10.69117,14.35122l-3.89514-.32608c-1.43413-1.93344-3.44983-4.46081-6.12452-7.26454-4.0185-4.21236-9.52284-9.04625-16.7639-13.43319-.35193-.85582-1.74604-3.80075-5.71032-7.95627-.68904-.72228-1.45693-1.48224-2.31005-2.27351Z"/>
          <path class="cls-9" d="M690.58619,180.28677l-6.5548-.54848,.77374,1.19658c.90866,1.26248,.90152,6.02264,.29547,10.61288-.56445,4.61353-1.59282,9.28781-2.19067,10.79924l-.0992,.24917,.09787,.24937c5.59012,14.33011,5.82833,24.25295,5.60525,28.27637-.07212,1.34174-.19268,1.99864-.19258,2.00058l-.08727,.48465,7.74756,4.31456c6.32282-18.86068,4.59728-39.77302-5.39536-57.63491Zm5.19709,55.89972l-5.95556-3.31706c.29274-2.38812,1.11226-13.30651-5.4629-30.28019,.68587-1.93987,1.62146-6.3632,2.18202-10.8759,.45882-4.01269,.71866-7.92694-.00546-10.35204l3.99383,.33407c9.11707,16.96927,10.80449,36.59081,5.24806,54.49113Z"/>
          <path class="cls-9" d="M662.63787,160.30393l.59274-.25924-.19865-.59968c-.03186-.09361-1.13164-3.30874-5.80704-8.20968-1.10381-1.15706-2.40771-2.40899-3.94224-3.73503-14.83398-6.05226-31.30165-7.37403-46.89302-3.87168-1.3252,1.16677-3.11769,2.75108-4.60146,4.07357-1.37401,1.22599-2.42977,2.17458-2.70489,2.46606l-.54514,.58494,.66141,.45762c1.5907,1.09914,3.11056,2.4711,4.49396,3.92124,2.93316,3.07246,5.25152,6.49436,6.43039,8.38625l.21867,.35186,.42647-.012c.01357,.00159,5.78174-.16785,12.94099,.31768,7.15475,.47782,15.6954,1.63748,21.04213,4.17993l.32726,.15463,.32483-.16064c5.93482-2.92604,12.79989-6.11737,17.23357-8.04583Zm-1.23868-1.0033c-4.3811,1.92413-10.73215,4.88075-16.33647,7.63801-10.59148-4.78134-30.7309-4.54764-33.90982-4.49514-1.2667-1.99423-3.52739-5.26396-6.38863-8.26581-1.23689-1.29656-2.5859-2.54149-4.0215-3.61258,.48326-.44204,1.21721-1.10344,2.0324-1.82833,1.80323-1.60723,4.08297-3.6179,5.39528-4.77108,14.19544-2.87174,29.0517-1.73704,42.64745,3.33209,2.17273,1.7691,3.92525,3.41357,5.33587,4.89224,3.31357,3.47342,4.73189,6.02556,5.24541,7.1106Z"/>
          <line class="cls-8" x1="642.87982" y1="257.52517" x2="635.87982" y2="253.52517"/>
        </g>
      </g>
      <text class="cls-3" transform="translate(.00024 274.23284) scale(1.09194 1)"><tspan x="0" y="0" xml:space="preserve">BALL  F</tspan></text>
      <text class="cls-4" transform="translate(704.4226 273.80315) scale(1.09194 1)"><tspan x="0" y="0">R </tspan><tspan class="cls-7" x="135.49475" y="0"> </tspan><tspan class="cls-1" x="162.23722" y="0">ALL</tspan></text>
    </g>
  </g>
</svg>