<svg width="27" height="25" viewBox="0 0 27 25" fill="none" xmlns="http://www.w3.org/2000/svg">
    <path d="M1.83465 15.2596L5.35346 13.1217L3.99864 10.8153C3.67186 10.2394 3.50067 9.59842 3.49978 8.94748V5.29123C3.49706 4.26317 3.81771 3.25675 4.42238 2.39555C5.02704 1.53435 5.88939 0.855871 6.90353 0.443416C7.91767 0.0309618 9.03944 -0.0975084 10.1311 0.0737813C11.2228 0.245071 12.2368 0.708664 13.0487 1.40763L11.8594 2.59982C11.2968 2.11683 10.5947 1.79676 9.83909 1.67886C9.0835 1.56096 8.30728 1.65035 7.6056 1.93607C6.90392 2.22179 6.30727 2.69143 5.88881 3.2874C5.47035 3.88337 5.24826 4.57978 5.24978 5.29123V8.94748C5.24995 9.32652 5.34773 9.70003 5.53497 10.0368L7.66319 13.66L2.79283 16.6192C2.47134 16.8146 2.20752 17.0815 2.02536 17.3956C1.84319 17.7097 1.74846 18.0612 1.74978 18.4179V21.135H5.68728V22.76H-0.00022316V18.4179C-0.00198555 17.7912 0.16494 17.174 0.485385 16.6224C0.805831 16.0708 1.26964 15.6024 1.83465 15.2596Z"/>
    <path d="M9.70967 16.8843L13.2284 14.7465L11.8737 12.4401C11.5469 11.8642 11.3757 11.2232 11.3748 10.5722V6.91598C11.3759 5.51454 11.9757 4.17073 13.0425 3.17937C14.1092 2.18802 15.5559 1.63007 17.0652 1.62793C20.1997 1.62793 22.7498 4.00018 22.7498 6.91598V10.5722C22.7531 11.2229 22.5838 11.8643 22.2568 12.4397L20.8946 14.7586L24.3929 16.8843C24.9573 17.2266 25.4207 17.6943 25.7411 18.245C26.0615 18.7957 26.2287 19.4119 26.2275 20.0379L26.2549 24.3847H7.8748V20.0426C7.87304 19.4159 8.03996 18.7987 8.36041 18.2472C8.68085 17.6956 9.14466 17.2271 9.70967 16.8843ZM9.6248 22.7597H24.4947L24.4778 20.0426C24.4791 19.6859 24.3844 19.3344 24.2022 19.0203C24.02 18.7062 23.7562 18.4393 23.4347 18.2439L18.5849 15.2971L20.7205 11.6616C20.9056 11.3243 21.0014 10.9508 20.9998 10.5722V6.91598C20.9998 5.94629 20.585 5.0163 19.8465 4.33062C19.1081 3.64495 18.1066 3.25973 17.0623 3.25973C16.018 3.25973 15.0165 3.64495 14.2781 4.33062C13.5396 5.0163 13.1248 5.94629 13.1248 6.91598V10.5722C13.125 10.9513 13.2228 11.3248 13.41 11.6616L15.5382 15.2847L10.6679 18.244C10.3464 18.4393 10.0825 18.7062 9.90038 19.0203C9.71822 19.3345 9.62349 19.6859 9.6248 20.0427V22.7597Z"/>
</svg>
